<svg width="298" height="83" viewBox="0 0 298 83" fill="none" xmlns="http://www.w3.org/2000/svg">
<path d="M9.86364 57.5455V75H5.125V57.5455H9.86364ZM20.7265 75H14.0106V57.5455H20.6584C22.4538 57.5455 24.0049 57.8949 25.3118 58.5938C26.6243 59.2869 27.6356 60.2869 28.3459 61.5938C29.0618 62.8949 29.4197 64.4545 29.4197 66.2727C29.4197 68.0909 29.0646 69.6534 28.3544 70.9602C27.6441 72.2614 26.6385 73.2614 25.3373 73.9602C24.0362 74.6534 22.4993 75 20.7265 75ZM18.7493 70.9773H20.5561C21.4197 70.9773 22.1555 70.8381 22.7635 70.5597C23.3771 70.2812 23.843 69.8011 24.1612 69.1193C24.4851 68.4375 24.647 67.4886 24.647 66.2727C24.647 65.0568 24.4822 64.108 24.1527 63.4261C23.8288 62.7443 23.3515 62.2642 22.7209 61.9858C22.0959 61.7074 21.3288 61.5682 20.4197 61.5682H18.7493V70.9773ZM36.5472 75.2386C35.1267 75.2386 33.9108 74.9574 32.8995 74.3949C31.8881 73.8267 31.1125 73.0369 30.5728 72.0256C30.033 71.0085 29.7631 69.8295 29.7631 68.4886C29.7631 67.1477 30.033 65.9716 30.5728 64.9602C31.1125 63.9432 31.8881 63.1534 32.8995 62.5909C33.9108 62.0227 35.1267 61.7386 36.5472 61.7386C37.9676 61.7386 39.1836 62.0227 40.1949 62.5909C41.2063 63.1534 41.9818 63.9432 42.5216 64.9602C43.0614 65.9716 43.3313 67.1477 43.3313 68.4886C43.3313 69.8295 43.0614 71.0085 42.5216 72.0256C41.9818 73.0369 41.2063 73.8267 40.1949 74.3949C39.1836 74.9574 37.9676 75.2386 36.5472 75.2386ZM36.5813 71.7614C36.979 71.7614 37.3228 71.6278 37.6125 71.3608C37.9023 71.0937 38.1267 70.7131 38.2858 70.2188C38.4449 69.7244 38.5245 69.1364 38.5245 68.4545C38.5245 67.767 38.4449 67.179 38.2858 66.6903C38.1267 66.196 37.9023 65.8153 37.6125 65.5483C37.3228 65.2812 36.979 65.1477 36.5813 65.1477C36.1608 65.1477 35.8 65.2812 35.4989 65.5483C35.1978 65.8153 34.9676 66.196 34.8086 66.6903C34.6495 67.179 34.5699 67.767 34.5699 68.4545C34.5699 69.1364 34.6495 69.7244 34.8086 70.2188C34.9676 70.7131 35.1978 71.0937 35.4989 71.3608C35.8 71.6278 36.1608 71.7614 36.5813 71.7614ZM48.5049 67.6364V75H43.8004V61.9091H48.2663V64.3977H48.4026C48.6867 63.5682 49.1867 62.9176 49.9026 62.446C50.6242 61.9744 51.4651 61.7386 52.4254 61.7386C53.3515 61.7386 54.1555 61.9517 54.8373 62.3778C55.5248 62.7983 56.056 63.3778 56.431 64.1165C56.8117 64.8551 56.9992 65.6989 56.9935 66.6477V75H52.289V67.6364C52.2947 66.9886 52.1299 66.4801 51.7947 66.1108C51.4651 65.7415 51.0049 65.5568 50.414 65.5568C50.0276 65.5568 49.6896 65.642 49.3998 65.8125C49.1157 65.9773 48.897 66.2159 48.7435 66.5284C48.5901 66.8352 48.5106 67.2045 48.5049 67.6364ZM61.7624 57.5455V59.5909C61.7624 60.1477 61.6487 60.7045 61.4214 61.2614C61.1999 61.8125 60.9158 62.3267 60.5692 62.804C60.2283 63.2756 59.876 63.6705 59.5124 63.9886L57.5692 63C57.8078 62.5909 58.0209 62.1165 58.2084 61.5767C58.3959 61.0369 58.4896 60.375 58.4896 59.5909V57.5455H61.7624ZM70.9225 61.9091V65.3182H62.2975V61.9091H70.9225ZM63.968 58.7727H68.6725V70.7898C68.6725 70.9716 68.7038 71.125 68.7663 71.25C68.8288 71.3693 68.9253 71.4602 69.056 71.5227C69.1867 71.5795 69.3543 71.608 69.5589 71.608C69.7009 71.608 69.8657 71.5909 70.0532 71.5568C70.2464 71.5227 70.3884 71.4943 70.4793 71.4716L71.1611 74.7784C70.9509 74.8409 70.6498 74.9176 70.2577 75.0085C69.8714 75.0994 69.4111 75.1591 68.877 75.1875C67.7975 75.2443 66.8913 75.1335 66.1583 74.8551C65.4253 74.571 64.8742 74.125 64.5049 73.517C64.1356 72.9091 63.9566 72.1477 63.968 71.233V58.7727ZM83.2321 69.2727V61.9091H87.9367V75H83.4708V72.5114H83.3344C83.0503 73.3466 82.5531 74 81.8429 74.4716C81.1327 74.9375 80.2889 75.1705 79.3117 75.1705C78.3969 75.1705 77.5958 74.9602 76.9083 74.5398C76.2264 74.1193 75.6952 73.5398 75.3145 72.8011C74.9395 72.0625 74.7492 71.2159 74.7435 70.2614V61.9091H79.448V69.2727C79.4537 69.9205 79.6185 70.429 79.9424 70.7983C80.2719 71.1676 80.7321 71.3523 81.323 71.3523C81.7151 71.3523 82.0531 71.2699 82.3372 71.1051C82.627 70.9347 82.8486 70.696 83.002 70.3892C83.1611 70.0767 83.2378 69.7045 83.2321 69.2727ZM100.855 66.1705H96.5258C96.5031 65.9034 96.4093 65.6733 96.2445 65.4801C96.0798 65.2869 95.8667 65.1392 95.6053 65.0369C95.3497 64.929 95.0656 64.875 94.7531 64.875C94.3497 64.875 94.0031 64.9489 93.7133 65.0966C93.4235 65.2443 93.2815 65.4545 93.2872 65.7273C93.2815 65.9205 93.3639 66.0994 93.5343 66.2642C93.7105 66.429 94.0485 66.5568 94.5485 66.6477L97.2076 67.125C98.5485 67.3693 99.5457 67.7812 100.199 68.3608C100.858 68.9347 101.191 69.7045 101.196 70.6705C101.191 71.6023 100.912 72.4119 100.361 73.0994C99.8156 73.7812 99.0684 74.3097 98.1195 74.6847C97.1764 75.054 96.0997 75.2386 94.8894 75.2386C92.8894 75.2386 91.3241 74.8295 90.1934 74.0114C89.0684 73.1932 88.4406 72.1136 88.3099 70.7727H92.9803C93.0428 71.1875 93.2474 71.5085 93.594 71.7358C93.9463 71.9574 94.3894 72.0682 94.9235 72.0682C95.3553 72.0682 95.7105 71.9943 95.9889 71.8466C96.273 71.6989 96.4178 71.4886 96.4235 71.2159C96.4178 70.9659 96.2928 70.767 96.0485 70.6193C95.8099 70.4716 95.4349 70.3523 94.9235 70.2614L92.6053 69.8523C91.2701 69.6193 90.2701 69.1761 89.6053 68.5227C88.9406 67.8693 88.611 67.0284 88.6167 66C88.611 65.0909 88.8497 64.321 89.3326 63.6903C89.8213 63.054 90.5173 62.571 91.4207 62.2415C92.3298 61.9062 93.4065 61.7386 94.6508 61.7386C96.5428 61.7386 98.0343 62.1307 99.1252 62.9148C100.222 63.6989 100.799 64.7841 100.855 66.1705ZM107.832 75.2386C106.434 75.2386 105.229 74.9716 104.218 74.4375C103.212 73.8977 102.437 73.125 101.891 72.1193C101.351 71.108 101.082 69.8977 101.082 68.4886C101.082 67.1364 101.354 65.9545 101.9 64.9432C102.445 63.9318 103.215 63.1449 104.209 62.5824C105.204 62.0199 106.377 61.7386 107.729 61.7386C108.718 61.7386 109.613 61.892 110.414 62.1989C111.215 62.5057 111.9 62.9517 112.468 63.5369C113.036 64.1165 113.474 64.821 113.78 65.6506C114.087 66.4801 114.241 67.4148 114.241 68.4545V69.5455H102.547V66.9545H109.911C109.905 66.5795 109.809 66.25 109.621 65.9659C109.439 65.6761 109.192 65.4517 108.88 65.2926C108.573 65.1278 108.224 65.0455 107.832 65.0455C107.451 65.0455 107.101 65.1278 106.783 65.2926C106.465 65.4517 106.209 65.6733 106.016 65.9574C105.829 66.2415 105.729 66.5739 105.718 66.9545V69.75C105.718 70.1705 105.806 70.5455 105.982 70.875C106.158 71.2045 106.411 71.4631 106.741 71.6506C107.07 71.8381 107.468 71.9318 107.934 71.9318C108.258 71.9318 108.553 71.8864 108.82 71.7955C109.093 71.7045 109.326 71.5739 109.519 71.4034C109.712 71.2273 109.854 71.017 109.945 70.7727H114.241C114.093 71.6818 113.743 72.4716 113.192 73.142C112.641 73.8068 111.911 74.3239 111.002 74.6932C110.099 75.0568 109.042 75.2386 107.832 75.2386ZM118.062 75V61.9091H122.766V75H118.062ZM120.414 60.5455C119.778 60.5455 119.232 60.3352 118.778 59.9148C118.323 59.4943 118.096 58.9886 118.096 58.3977C118.096 57.8068 118.323 57.3011 118.778 56.8807C119.232 56.4602 119.778 56.25 120.414 56.25C121.056 56.25 121.601 56.4602 122.05 56.8807C122.505 57.3011 122.732 57.8068 122.732 58.3977C122.732 58.9886 122.505 59.4943 122.05 59.9148C121.601 60.3352 121.056 60.5455 120.414 60.5455ZM131.53 61.9091V65.3182H122.905V61.9091H131.53ZM124.575 58.7727H129.28V70.7898C129.28 70.9716 129.311 71.125 129.374 71.25C129.436 71.3693 129.533 71.4602 129.664 71.5227C129.794 71.5795 129.962 71.608 130.166 71.608C130.308 71.608 130.473 71.5909 130.661 71.5568C130.854 71.5227 130.996 71.4943 131.087 71.4716L131.769 74.7784C131.558 74.8409 131.257 74.9176 130.865 75.0085C130.479 75.0994 130.019 75.1591 129.485 75.1875C128.405 75.2443 127.499 75.1335 126.766 74.8551C126.033 74.571 125.482 74.125 125.112 73.517C124.743 72.9091 124.564 72.1477 124.575 71.233V58.7727ZM136.578 72.6136L136.51 73.5682C136.453 74.3864 136.317 75.1705 136.101 75.9205C135.89 76.6705 135.666 77.3352 135.427 77.9148C135.194 78.4943 135.01 78.9432 134.873 79.2614H131.976C132.067 78.9432 132.194 78.483 132.359 77.8807C132.53 77.2841 132.683 76.608 132.819 75.8523C132.961 75.1023 133.032 74.3409 133.032 73.5682V72.6136H136.578ZM144.863 57.5455V75H140.124V57.5455H144.863ZM149.623 57.5455V59.5909C149.623 60.1477 149.509 60.7045 149.282 61.2614C149.06 61.8125 148.776 62.3267 148.43 62.804C148.089 63.2756 147.737 63.6705 147.373 63.9886L145.43 63C145.668 62.5909 145.882 62.1165 146.069 61.5767C146.257 61.0369 146.35 60.375 146.35 59.5909V57.5455H149.623ZM155.165 57.5455V75H150.461V57.5455H155.165ZM160.827 57.5455V75H156.122V57.5455H160.827ZM171.432 80.1818C170.119 80.1818 168.994 79.9943 168.057 79.6193C167.125 79.25 166.401 78.7386 165.884 78.0852C165.372 77.4375 165.085 76.6932 165.023 75.8523H169.557C169.602 76.1307 169.716 76.3551 169.898 76.5256C170.08 76.696 170.313 76.8182 170.597 76.892C170.886 76.9716 171.21 77.0114 171.568 77.0114C172.176 77.0114 172.679 76.8636 173.077 76.5682C173.48 76.2727 173.682 75.7386 173.682 74.9659V72.75H173.546C173.375 73.1932 173.114 73.571 172.761 73.8835C172.409 74.1903 171.986 74.4261 171.492 74.5909C170.997 74.75 170.455 74.8295 169.864 74.8295C168.932 74.8295 168.074 74.6136 167.29 74.1818C166.511 73.75 165.886 73.0653 165.415 72.1278C164.949 71.1903 164.716 69.9659 164.716 68.4545C164.716 66.875 164.96 65.5909 165.449 64.6023C165.943 63.6136 166.58 62.8892 167.358 62.429C168.142 61.9688 168.966 61.7386 169.83 61.7386C170.477 61.7386 171.046 61.8523 171.534 62.0795C172.023 62.3011 172.432 62.5994 172.761 62.9744C173.091 63.3437 173.341 63.75 173.511 64.1932H173.614V61.9091H178.318V74.9659C178.318 76.0739 178.031 77.0142 177.457 77.7869C176.889 78.5653 176.088 79.1591 175.054 79.5682C174.02 79.9773 172.813 80.1818 171.432 80.1818ZM171.602 71.4886C172.034 71.4886 172.403 71.3693 172.71 71.1307C173.023 70.8864 173.261 70.5398 173.426 70.0909C173.597 69.6364 173.682 69.0909 173.682 68.4545C173.682 67.8068 173.597 67.2528 173.426 66.7926C173.261 66.3267 173.023 65.9716 172.71 65.7273C172.403 65.4773 172.034 65.3523 171.602 65.3523C171.171 65.3523 170.801 65.4773 170.494 65.7273C170.193 65.9716 169.96 66.3267 169.796 66.7926C169.636 67.2528 169.557 67.8068 169.557 68.4545C169.557 69.1023 169.636 69.6534 169.796 70.108C169.96 70.5568 170.193 70.9006 170.494 71.1392C170.801 71.3722 171.171 71.4886 171.602 71.4886ZM179.271 75V61.9091H183.976V75H179.271ZM181.623 60.5455C180.987 60.5455 180.441 60.3352 179.987 59.9148C179.532 59.4943 179.305 58.9886 179.305 58.3977C179.305 57.8068 179.532 57.3011 179.987 56.8807C180.441 56.4602 180.987 56.25 181.623 56.25C182.265 56.25 182.811 56.4602 183.26 56.8807C183.714 57.3011 183.941 57.8068 183.941 58.3977C183.941 58.9886 183.714 59.4943 183.26 59.9148C182.811 60.3352 182.265 60.5455 181.623 60.5455ZM198.126 61.9091L193.728 75H188.273L183.876 61.9091H188.819L190.933 70.5682H191.069L193.183 61.9091H198.126ZM203.898 75.2386C202.5 75.2386 201.296 74.9716 200.284 74.4375C199.279 73.8977 198.503 73.125 197.958 72.1193C197.418 71.108 197.148 69.8977 197.148 68.4886C197.148 67.1364 197.421 65.9545 197.966 64.9432C198.512 63.9318 199.282 63.1449 200.276 62.5824C201.27 62.0199 202.444 61.7386 203.796 61.7386C204.784 61.7386 205.679 61.892 206.48 62.1989C207.282 62.5057 207.966 62.9517 208.534 63.5369C209.103 64.1165 209.54 64.821 209.847 65.6506C210.154 66.4801 210.307 67.4148 210.307 68.4545V69.5455H198.614V66.9545H205.978C205.972 66.5795 205.875 66.25 205.688 65.9659C205.506 65.6761 205.259 65.4517 204.946 65.2926C204.64 65.1278 204.29 65.0455 203.898 65.0455C203.517 65.0455 203.168 65.1278 202.85 65.2926C202.532 65.4517 202.276 65.6733 202.083 65.9574C201.895 66.2415 201.796 66.5739 201.784 66.9545V69.75C201.784 70.1705 201.873 70.5455 202.049 70.875C202.225 71.2045 202.478 71.4631 202.807 71.6506C203.137 71.8381 203.534 71.9318 204 71.9318C204.324 71.9318 204.62 71.8864 204.887 71.7955C205.159 71.7045 205.392 71.5739 205.586 71.4034C205.779 71.2273 205.921 71.017 206.012 70.7727H210.307C210.159 71.6818 209.81 72.4716 209.259 73.142C208.708 73.8068 207.978 74.3239 207.069 74.6932C206.165 75.0568 205.108 75.2386 203.898 75.2386ZM214.128 75V61.9091H218.833V75H214.128ZM216.48 60.5455C215.844 60.5455 215.299 60.3352 214.844 59.9148C214.39 59.4943 214.162 58.9886 214.162 58.3977C214.162 57.8068 214.39 57.3011 214.844 56.8807C215.299 56.4602 215.844 56.25 216.48 56.25C217.122 56.25 217.668 56.4602 218.117 56.8807C218.571 57.3011 218.799 57.8068 218.799 58.3977C218.799 58.9886 218.571 59.4943 218.117 59.9148C217.668 60.3352 217.122 60.5455 216.48 60.5455ZM227.597 61.9091V65.3182H218.972V61.9091H227.597ZM220.642 58.7727H225.347V70.7898C225.347 70.9716 225.378 71.125 225.44 71.25C225.503 71.3693 225.599 71.4602 225.73 71.5227C225.861 71.5795 226.028 71.608 226.233 71.608C226.375 71.608 226.54 71.5909 226.727 71.5568C226.92 71.5227 227.062 71.4943 227.153 71.4716L227.835 74.7784C227.625 74.8409 227.324 74.9176 226.932 75.0085C226.545 75.0994 226.085 75.1591 225.551 75.1875C224.472 75.2443 223.565 75.1335 222.832 74.8551C222.099 74.571 221.548 74.125 221.179 73.517C220.81 72.9091 220.631 72.1477 220.642 71.233V58.7727ZM235.065 75.2045C234.23 75.2045 233.491 75.0682 232.849 74.7955C232.213 74.517 231.713 74.0966 231.349 73.5341C230.986 72.9716 230.804 72.2557 230.804 71.3864C230.804 70.6705 230.926 70.0597 231.17 69.554C231.415 69.0426 231.756 68.625 232.193 68.3011C232.631 67.9773 233.139 67.7301 233.719 67.5597C234.304 67.3892 234.935 67.2784 235.611 67.2273C236.344 67.1705 236.932 67.1023 237.375 67.0227C237.824 66.9375 238.148 66.821 238.347 66.6733C238.545 66.5199 238.645 66.3182 238.645 66.0682V66.0341C238.645 65.6932 238.514 65.4318 238.253 65.25C237.991 65.0682 237.656 64.9773 237.247 64.9773C236.798 64.9773 236.432 65.0767 236.148 65.2756C235.869 65.4687 235.702 65.767 235.645 66.1705H231.315C231.372 65.375 231.625 64.642 232.074 63.9716C232.528 63.2955 233.19 62.7557 234.06 62.3523C234.929 61.9432 236.014 61.7386 237.315 61.7386C238.253 61.7386 239.094 61.8494 239.838 62.071C240.582 62.2869 241.216 62.5909 241.739 62.983C242.261 63.3693 242.659 63.8239 242.932 64.3466C243.21 64.8636 243.349 65.4261 243.349 66.0341V75H238.952V73.1591H238.849C238.588 73.6477 238.27 74.0426 237.895 74.3438C237.526 74.6449 237.102 74.8636 236.625 75C236.153 75.1364 235.633 75.2045 235.065 75.2045ZM236.599 72.2386C236.957 72.2386 237.293 72.1648 237.605 72.017C237.923 71.8693 238.182 71.6562 238.381 71.3778C238.579 71.0994 238.679 70.7614 238.679 70.3636V69.2727C238.554 69.3239 238.42 69.3722 238.278 69.4176C238.142 69.4631 237.994 69.5057 237.835 69.5455C237.682 69.5852 237.517 69.6222 237.341 69.6562C237.17 69.6903 236.991 69.7216 236.804 69.75C236.44 69.8068 236.142 69.9006 235.909 70.0312C235.682 70.1562 235.511 70.3125 235.398 70.5C235.29 70.6818 235.236 70.8864 235.236 71.1136C235.236 71.4773 235.364 71.7557 235.619 71.9489C235.875 72.142 236.202 72.2386 236.599 72.2386ZM246.475 75L243.203 61.9091H247.907L249.407 69.8864H249.51L251.18 61.9091H255.748L257.487 69.8182H257.589L259.021 61.9091H263.725L260.453 75H255.373L253.532 67.9773H253.396L251.555 75H246.475ZM267.365 75.2045C266.53 75.2045 265.791 75.0682 265.149 74.7955C264.513 74.517 264.013 74.0966 263.649 73.5341C263.285 72.9716 263.104 72.2557 263.104 71.3864C263.104 70.6705 263.226 70.0597 263.47 69.554C263.714 69.0426 264.055 68.625 264.493 68.3011C264.93 67.9773 265.439 67.7301 266.018 67.5597C266.604 67.3892 267.234 67.2784 267.91 67.2273C268.643 67.1705 269.231 67.1023 269.675 67.0227C270.123 66.9375 270.447 66.821 270.646 66.6733C270.845 66.5199 270.945 66.3182 270.945 66.0682V66.0341C270.945 65.6932 270.814 65.4318 270.552 65.25C270.291 65.0682 269.956 64.9773 269.547 64.9773C269.098 64.9773 268.731 65.0767 268.447 65.2756C268.169 65.4687 268.001 65.767 267.945 66.1705H263.615C263.672 65.375 263.925 64.642 264.373 63.9716C264.828 63.2955 265.49 62.7557 266.359 62.3523C267.229 61.9432 268.314 61.7386 269.615 61.7386C270.552 61.7386 271.393 61.8494 272.138 62.071C272.882 62.2869 273.516 62.5909 274.038 62.983C274.561 63.3693 274.959 63.8239 275.231 64.3466C275.51 64.8636 275.649 65.4261 275.649 66.0341V75H271.251V73.1591H271.149C270.888 73.6477 270.57 74.0426 270.195 74.3438C269.825 74.6449 269.402 74.8636 268.925 75C268.453 75.1364 267.933 75.2045 267.365 75.2045ZM268.899 72.2386C269.257 72.2386 269.592 72.1648 269.905 72.017C270.223 71.8693 270.481 71.6562 270.68 71.3778C270.879 71.0994 270.979 70.7614 270.979 70.3636V69.2727C270.854 69.3239 270.72 69.3722 270.578 69.4176C270.442 69.4631 270.294 69.5057 270.135 69.5455C269.981 69.5852 269.817 69.6222 269.641 69.6562C269.47 69.6903 269.291 69.7216 269.104 69.75C268.74 69.8068 268.442 69.9006 268.209 70.0312C267.981 70.1562 267.811 70.3125 267.697 70.5C267.589 70.6818 267.535 70.8864 267.535 71.1136C267.535 71.4773 267.663 71.7557 267.919 71.9489C268.175 72.142 268.501 72.2386 268.899 72.2386ZM278.852 79.9091C278.312 79.9091 277.798 79.8665 277.309 79.7812C276.821 79.7017 276.392 79.5909 276.022 79.4489L277.045 76.108C277.431 76.2443 277.784 76.3324 278.102 76.3722C278.426 76.4119 278.701 76.3892 278.929 76.304C279.161 76.2188 279.329 76.0568 279.431 75.8182L279.534 75.5795L274.931 61.9091H279.84L281.954 70.9773H282.09L284.238 61.9091H289.181L284.409 76.0909C284.17 76.8125 283.823 77.4602 283.369 78.0341C282.92 78.6136 282.329 79.071 281.596 79.4062C280.863 79.7415 279.948 79.9091 278.852 79.9091Z" fill="#40676E"/>
<path d="M2.25 46V11.0909H26.7955V18.7273H11.7273V24.7273H25.2955V32.3636H11.7273V46H2.25ZM26.9751 46V19.8182H36.1115V24.7955H36.3842C36.8615 22.9545 37.6172 21.608 38.6512 20.7557C39.6967 19.9034 40.9183 19.4773 42.316 19.4773C42.7251 19.4773 43.1285 19.5114 43.5262 19.5795C43.9353 19.6364 44.3274 19.7216 44.7024 19.8352V27.8636C44.2365 27.7045 43.6626 27.5852 42.9808 27.5057C42.299 27.4261 41.7137 27.3864 41.2251 27.3864C40.3047 27.3864 39.4751 27.5966 38.7365 28.017C38.0092 28.4261 37.4353 29.0057 37.0149 29.7557C36.5944 30.4943 36.3842 31.3636 36.3842 32.3636V46H26.9751ZM55.9531 46.4773C53.1576 46.4773 50.7485 45.9432 48.7258 44.875C46.7144 43.7955 45.1633 42.25 44.0724 40.2386C42.9928 38.2159 42.4531 35.7955 42.4531 32.9773C42.4531 30.2727 42.9985 27.9091 44.0894 25.8864C45.1803 23.8636 46.7201 22.2898 48.7087 21.1648C50.6974 20.0398 53.044 19.4773 55.7485 19.4773C57.7258 19.4773 59.5156 19.7841 61.1178 20.3977C62.7201 21.0114 64.0894 21.9034 65.2258 23.0739C66.3622 24.233 67.2372 25.642 67.8508 27.3011C68.4644 28.9602 68.7712 30.8295 68.7712 32.9091V35.0909H45.3849V29.9091H60.1122C60.1008 29.1591 59.9076 28.5 59.5326 27.9318C59.169 27.3523 58.6747 26.9034 58.0497 26.5852C57.436 26.2557 56.7372 26.0909 55.9531 26.0909C55.1917 26.0909 54.4928 26.2557 53.8565 26.5852C53.2201 26.9034 52.7087 27.3466 52.3224 27.9148C51.9474 28.483 51.7485 29.1477 51.7258 29.9091V35.5C51.7258 36.3409 51.9019 37.0909 52.2542 37.75C52.6065 38.4091 53.1122 38.9261 53.7712 39.3011C54.4303 39.6761 55.2258 39.8636 56.1576 39.8636C56.8053 39.8636 57.3962 39.7727 57.9303 39.5909C58.4758 39.4091 58.9417 39.1477 59.3281 38.8068C59.7144 38.4545 59.9985 38.0341 60.1803 37.5455H68.7712C68.4758 39.3636 67.7769 40.9432 66.6747 42.2841C65.5724 43.6136 64.1122 44.6477 62.294 45.3864C60.4872 46.1136 58.3735 46.4773 55.9531 46.4773ZM82.2762 46.4773C79.4807 46.4773 77.0716 45.9432 75.0489 44.875C73.0376 43.7955 71.4864 42.25 70.3955 40.2386C69.316 38.2159 68.7762 35.7955 68.7762 32.9773C68.7762 30.2727 69.3216 27.9091 70.4126 25.8864C71.5035 23.8636 73.0432 22.2898 75.0319 21.1648C77.0205 20.0398 79.3671 19.4773 82.0716 19.4773C84.0489 19.4773 85.8387 19.7841 87.441 20.3977C89.0432 21.0114 90.4126 21.9034 91.5489 23.0739C92.6853 24.233 93.5603 25.642 94.1739 27.3011C94.7876 28.9602 95.0944 30.8295 95.0944 32.9091V35.0909H71.708V29.9091H86.4353C86.4239 29.1591 86.2307 28.5 85.8557 27.9318C85.4921 27.3523 84.9978 26.9034 84.3728 26.5852C83.7591 26.2557 83.0603 26.0909 82.2762 26.0909C81.5148 26.0909 80.816 26.2557 80.1796 26.5852C79.5432 26.9034 79.0319 27.3466 78.6455 27.9148C78.2705 28.483 78.0716 29.1477 78.0489 29.9091V35.5C78.0489 36.3409 78.2251 37.0909 78.5773 37.75C78.9296 38.4091 79.4353 38.9261 80.0944 39.3011C80.7535 39.6761 81.5489 39.8636 82.4807 39.8636C83.1285 39.8636 83.7194 39.7727 84.2535 39.5909C84.7989 39.4091 85.2648 39.1477 85.6512 38.8068C86.0376 38.4545 86.3216 38.0341 86.5035 37.5455H95.0944C94.7989 39.3636 94.1001 40.9432 92.9978 42.2841C91.8955 43.6136 90.4353 44.6477 88.6171 45.3864C86.8103 46.1136 84.6966 46.4773 82.2762 46.4773ZM88.3451 11.0909H98.9132L105.731 25.2727H106.004L112.822 11.0909H123.391L110.572 35.0227V46H101.163V35.0227L88.3451 11.0909ZM129.694 46.4773C126.853 46.4773 124.421 45.9148 122.398 44.7898C120.376 43.6534 118.824 42.0739 117.745 40.0511C116.665 38.017 116.126 35.6591 116.126 32.9773C116.126 30.2955 116.665 27.9432 117.745 25.9205C118.824 23.8864 120.376 22.3068 122.398 21.1818C124.421 20.0455 126.853 19.4773 129.694 19.4773C132.535 19.4773 134.966 20.0455 136.989 21.1818C139.012 22.3068 140.563 23.8864 141.643 25.9205C142.722 27.9432 143.262 30.2955 143.262 32.9773C143.262 35.6591 142.722 38.017 141.643 40.0511C140.563 42.0739 139.012 43.6534 136.989 44.7898C134.966 45.9148 132.535 46.4773 129.694 46.4773ZM129.762 39.5227C130.557 39.5227 131.245 39.2557 131.824 38.7216C132.404 38.1875 132.853 37.4261 133.171 36.4375C133.489 35.4489 133.648 34.2727 133.648 32.9091C133.648 31.5341 133.489 30.358 133.171 29.3807C132.853 28.392 132.404 27.6307 131.824 27.0966C131.245 26.5625 130.557 26.2955 129.762 26.2955C128.921 26.2955 128.199 26.5625 127.597 27.0966C126.995 27.6307 126.535 28.392 126.216 29.3807C125.898 30.358 125.739 31.5341 125.739 32.9091C125.739 34.2727 125.898 35.4489 126.216 36.4375C126.535 37.4261 126.995 38.1875 127.597 38.7216C128.199 39.2557 128.921 39.5227 129.762 39.5227ZM161.177 34.5455V19.8182H170.586V46H161.655V41.0227H161.382C160.814 42.6932 159.819 44 158.399 44.9432C156.979 45.875 155.291 46.3409 153.336 46.3409C151.507 46.3409 149.905 45.9205 148.53 45.0795C147.166 44.2386 146.104 43.0795 145.342 41.6023C144.592 40.125 144.211 38.4318 144.2 36.5227V19.8182H153.609V34.5455C153.621 35.8409 153.95 36.858 154.598 37.5966C155.257 38.3352 156.177 38.7045 157.359 38.7045C158.143 38.7045 158.819 38.5398 159.388 38.2102C159.967 37.8693 160.41 37.392 160.717 36.7784C161.035 36.1534 161.189 35.4091 161.177 34.5455ZM172.492 46V19.8182H181.628V24.7955H181.901C182.378 22.9545 183.134 21.608 184.168 20.7557C185.214 19.9034 186.435 19.4773 187.833 19.4773C188.242 19.4773 188.645 19.5114 189.043 19.5795C189.452 19.6364 189.844 19.7216 190.219 19.8352V27.8636C189.753 27.7045 189.179 27.5852 188.498 27.5057C187.816 27.4261 187.231 27.3864 186.742 27.3864C185.822 27.3864 184.992 27.5966 184.253 28.017C183.526 28.4261 182.952 29.0057 182.532 29.7557C182.111 30.4943 181.901 31.3636 181.901 32.3636V46H172.492ZM209.106 22C209.015 20.8636 208.589 19.9773 207.828 19.3409C207.078 18.7045 205.936 18.3864 204.402 18.3864C203.424 18.3864 202.623 18.5057 201.998 18.7443C201.385 18.9716 200.93 19.2841 200.635 19.6818C200.339 20.0795 200.186 20.5341 200.174 21.0455C200.152 21.4659 200.226 21.8466 200.396 22.1875C200.578 22.517 200.862 22.8182 201.248 23.0909C201.635 23.3523 202.129 23.5909 202.731 23.8068C203.334 24.0227 204.049 24.2159 204.879 24.3864L207.743 25C209.674 25.4091 211.328 25.9489 212.703 26.6193C214.078 27.2898 215.203 28.0795 216.078 28.9886C216.953 29.8864 217.595 30.8977 218.004 32.0227C218.424 33.1477 218.64 34.375 218.652 35.7045C218.64 38 218.067 39.9432 216.93 41.5341C215.794 43.125 214.169 44.3352 212.055 45.1648C209.953 45.9943 207.424 46.4091 204.47 46.4091C201.436 46.4091 198.788 45.9602 196.527 45.0625C194.277 44.1648 192.527 42.7841 191.277 40.9205C190.038 39.0455 189.413 36.6477 189.402 33.7273H198.402C198.459 34.7955 198.726 35.6932 199.203 36.4205C199.68 37.1477 200.351 37.6989 201.214 38.0739C202.089 38.4489 203.129 38.6364 204.334 38.6364C205.345 38.6364 206.192 38.5114 206.873 38.2614C207.555 38.0114 208.072 37.6648 208.424 37.2216C208.777 36.7784 208.959 36.2727 208.97 35.7045C208.959 35.1705 208.782 34.7045 208.442 34.3068C208.112 33.8977 207.567 33.5341 206.805 33.2159C206.044 32.8864 205.015 32.5795 203.72 32.2955L200.243 31.5455C197.152 30.875 194.714 29.7557 192.93 28.1875C191.157 26.608 190.277 24.4545 190.288 21.7273C190.277 19.5114 190.868 17.5739 192.061 15.9148C193.265 14.2443 194.93 12.9432 197.055 12.0114C199.192 11.0795 201.64 10.6136 204.402 10.6136C207.22 10.6136 209.657 11.0852 211.714 12.0284C213.771 12.9716 215.356 14.3011 216.47 16.017C217.595 17.7216 218.163 19.7159 218.174 22H209.106ZM235.127 19.8182V26.6364H217.877V19.8182H235.127ZM221.218 13.5455H230.627V37.5795C230.627 37.9432 230.689 38.25 230.814 38.5C230.939 38.7386 231.133 38.9205 231.394 39.0455C231.655 39.1591 231.991 39.2159 232.4 39.2159C232.684 39.2159 233.013 39.1818 233.388 39.1136C233.775 39.0455 234.059 38.9886 234.241 38.9432L235.604 45.5568C235.184 45.6818 234.581 45.8352 233.797 46.017C233.025 46.1989 232.104 46.3182 231.036 46.375C228.877 46.4886 227.064 46.267 225.598 45.7102C224.133 45.142 223.03 44.25 222.292 43.0341C221.553 41.8182 221.195 40.2955 221.218 38.4659V13.5455ZM253.064 34.5455V19.8182H262.473V46H253.541V41.0227H253.268C252.7 42.6932 251.706 44 250.285 44.9432C248.865 45.875 247.177 46.3409 245.223 46.3409C243.393 46.3409 241.791 45.9205 240.416 45.0795C239.052 44.2386 237.99 43.0795 237.228 41.6023C236.478 40.125 236.098 38.4318 236.086 36.5227V19.8182H245.495V34.5455C245.507 35.8409 245.836 36.858 246.484 37.5966C247.143 38.3352 248.064 38.7045 249.245 38.7045C250.03 38.7045 250.706 38.5398 251.274 38.2102C251.853 37.8693 252.297 37.392 252.603 36.7784C252.922 36.1534 253.075 35.4091 253.064 34.5455ZM280.06 19.8182V26.6364H262.537V19.8182H280.06ZM265.878 46V19.0682C265.878 16.9091 266.265 15.1193 267.037 13.6989C267.81 12.2784 268.901 11.2159 270.31 10.5114C271.719 9.80682 273.378 9.45454 275.287 9.45454C276.481 9.45454 277.64 9.54545 278.765 9.72727C279.901 9.90909 280.742 10.0682 281.287 10.2045L279.924 16.9545C279.583 16.8523 279.185 16.7727 278.731 16.7159C278.276 16.6477 277.878 16.6136 277.537 16.6136C276.651 16.6136 276.054 16.8011 275.748 17.1761C275.441 17.5511 275.287 18.0455 275.287 18.6591V46H265.878ZM296.493 19.8182V26.6364H278.97V19.8182H296.493ZM282.311 46V19.0682C282.311 16.9091 282.697 15.1193 283.47 13.6989C284.243 12.2784 285.333 11.2159 286.743 10.5114C288.152 9.80682 289.811 9.45454 291.72 9.45454C292.913 9.45454 294.072 9.54545 295.197 9.72727C296.333 9.90909 297.174 10.0682 297.72 10.2045L296.356 16.9545C296.015 16.8523 295.618 16.7727 295.163 16.7159C294.708 16.6477 294.311 16.6136 293.97 16.6136C293.083 16.6136 292.487 16.8011 292.18 17.1761C291.873 17.5511 291.72 18.0455 291.72 18.6591V46H282.311Z" fill="#408E61"/>
</svg>
